<svg width="532" height="532" viewBox="0 0 532 532" fill="none" xmlns="http://www.w3.org/2000/svg">
<path d="M478.694 423.993H443.454V424.259H478.694V423.993Z" fill="#EBEBEB"/>
<path d="M352.418 426.887H343.172V427.153H352.418V426.887Z" fill="#EBEBEB"/>
<path d="M442.39 414.119H421.972V414.385H442.39V414.119Z" fill="#EBEBEB"/>
<path d="M101.772 415.907H55.8174V416.173H101.772V415.907Z" fill="#EBEBEB"/>
<path d="M117.987 415.907H111.252V416.173H117.987V415.907Z" fill="#EBEBEB"/>
<path d="M239.56 420.397H139.884V420.663H239.56V420.397Z" fill="#EBEBEB"/>
<path d="M253.658 359.419H48.1992C46.5879 359.419 45.0426 358.779 43.9032 357.64C42.7639 356.5 42.1238 354.955 42.1238 353.344V64.5423C42.1378 62.9402 42.7841 61.4085 43.9219 60.2806C45.0598 59.1527 46.5971 58.52 48.1992 58.52H253.658C254.455 58.52 255.245 58.6772 255.983 58.9825C256.72 59.2878 257.389 59.7353 257.954 60.2995C258.518 60.8636 258.965 61.5334 259.271 62.2705C259.576 63.0076 259.733 63.7976 259.733 64.5955V353.344C259.733 354.142 259.576 354.932 259.271 355.669C258.965 356.406 258.518 357.076 257.954 357.64C257.389 358.204 256.72 358.651 255.983 358.957C255.245 359.262 254.455 359.419 253.658 359.419ZM48.1992 58.7328C46.6593 58.7356 45.1833 59.3486 44.0944 60.4375C43.0056 61.5263 42.3926 63.0024 42.3898 64.5423V353.344C42.3926 354.884 43.0056 356.36 44.0944 357.449C45.1833 358.537 46.6593 359.15 48.1992 359.153H253.658C255.198 359.15 256.674 358.537 257.762 357.449C258.851 356.36 259.464 354.884 259.467 353.344V64.5423C259.464 63.0024 258.851 61.5263 257.762 60.4375C256.674 59.3486 255.198 58.7356 253.658 58.7328H48.1992Z" fill="#EBEBEB"/>
<path d="M483.801 359.419H278.343C276.731 359.419 275.186 358.779 274.047 357.64C272.907 356.5 272.267 354.955 272.267 353.344V64.5423C272.281 62.9402 272.927 61.4085 274.065 60.2806C275.203 59.1527 276.74 58.52 278.343 58.52H483.801C485.412 58.52 486.958 59.1601 488.097 60.2995C489.236 61.4388 489.876 62.9842 489.876 64.5955V353.344C489.876 354.955 489.236 356.5 488.097 357.64C486.958 358.779 485.412 359.419 483.801 359.419ZM278.343 58.7328C276.803 58.7356 275.327 59.3486 274.238 60.4375C273.149 61.5263 272.536 63.0024 272.533 64.5423V353.344C272.536 354.884 273.149 356.36 274.238 357.449C275.327 358.537 276.803 359.15 278.343 359.153H483.801C485.341 359.15 486.817 358.537 487.906 357.449C488.995 356.36 489.608 354.884 489.61 353.344V64.5423C489.608 63.0024 488.995 61.5263 487.906 60.4375C486.817 59.3486 485.341 58.7356 483.801 58.7328H278.343Z" fill="#EBEBEB"/>
<path d="M532 406.874H0V407.14H532V406.874Z" fill="#EBEBEB"/>
<path d="M126.967 334.894C126.073 324.616 115.582 320.775 103.144 321.86C90.7061 322.945 81.0556 328.553 81.9281 338.831L126.967 334.894Z" fill="#F0F0F0"/>
<path d="M102.74 317.168C108.507 316.657 110.347 311.784 109.847 306.017C109.347 300.25 106.655 295.771 100.91 296.271C95.1642 296.771 93.3022 301.655 93.8023 307.422C94.3024 313.188 96.973 317.668 102.74 317.168Z" fill="#F0F0F0"/>
<path d="M361.866 115.976C361.967 117.117 361.728 118.262 361.178 119.266C360.628 120.271 359.792 121.089 358.776 121.619C357.761 122.148 356.611 122.364 355.473 122.24C354.335 122.116 353.259 121.657 352.381 120.921C351.504 120.185 350.864 119.205 350.544 118.106C350.223 117.007 350.236 115.837 350.581 114.745C350.925 113.653 351.586 112.687 352.479 111.971C353.373 111.254 354.458 110.819 355.599 110.72C357.127 110.587 358.645 111.066 359.82 112.051C360.995 113.037 361.731 114.448 361.866 115.976Z" fill="#F5F5F5"/>
<path d="M393.861 113.146C393.96 114.284 393.719 115.426 393.168 116.428C392.618 117.429 391.783 118.245 390.769 118.772C389.755 119.299 388.608 119.513 387.472 119.388C386.337 119.263 385.263 118.804 384.388 118.069C383.514 117.334 382.876 116.356 382.557 115.259C382.238 114.162 382.252 112.994 382.596 111.905C382.94 110.815 383.6 109.852 384.491 109.138C385.383 108.423 386.466 107.988 387.604 107.89C389.131 107.76 390.646 108.24 391.818 109.225C392.991 110.21 393.726 111.62 393.861 113.146Z" fill="#F5F5F5"/>
<path d="M425.866 110.348C425.967 111.488 425.727 112.633 425.177 113.638C424.627 114.642 423.792 115.461 422.776 115.99C421.761 116.52 420.611 116.736 419.473 116.612C418.334 116.488 417.258 116.028 416.381 115.293C415.503 114.557 414.864 113.577 414.544 112.478C414.223 111.378 414.236 110.208 414.58 109.116C414.925 108.024 415.586 107.059 416.479 106.342C417.372 105.626 418.458 105.191 419.599 105.091C421.127 104.959 422.645 105.437 423.82 106.423C424.995 107.408 425.731 108.82 425.866 110.348Z" fill="#F5F5F5"/>
<path d="M364.718 148.556C364.819 149.696 364.579 150.842 364.029 151.846C363.479 152.85 362.644 153.669 361.628 154.199C360.613 154.728 359.463 154.944 358.325 154.82C357.186 154.696 356.11 154.237 355.233 153.501C354.355 152.765 353.716 151.785 353.395 150.686C353.075 149.586 353.088 148.417 353.432 147.325C353.777 146.233 354.438 145.267 355.331 144.551C356.224 143.834 357.31 143.399 358.451 143.3C359.979 143.167 361.497 143.646 362.672 144.631C363.847 145.617 364.583 147.028 364.718 148.556Z" fill="#F5F5F5"/>
<path d="M396.712 145.768C396.811 146.906 396.57 148.049 396.02 149.05C395.47 150.051 394.635 150.867 393.621 151.394C392.607 151.921 391.46 152.136 390.324 152.011C389.188 151.885 388.115 151.426 387.24 150.691C386.365 149.956 385.728 148.978 385.409 147.881C385.09 146.784 385.103 145.617 385.447 144.527C385.792 143.438 386.451 142.475 387.343 141.76C388.234 141.045 389.318 140.611 390.456 140.512C391.212 140.446 391.973 140.53 392.697 140.759C393.42 140.987 394.092 141.356 394.673 141.844C395.254 142.332 395.733 142.93 396.083 143.603C396.433 144.277 396.647 145.012 396.712 145.768Z" fill="#F5F5F5"/>
<path d="M428.718 142.959C428.819 144.1 428.579 145.245 428.029 146.249C427.479 147.254 426.643 148.072 425.628 148.602C424.612 149.131 423.463 149.348 422.324 149.223C421.186 149.099 420.11 148.64 419.232 147.904C418.355 147.168 417.716 146.189 417.395 145.089C417.075 143.99 417.087 142.82 417.432 141.728C417.777 140.636 418.437 139.67 419.331 138.954C420.224 138.237 421.31 137.802 422.451 137.703C423.978 137.57 425.497 138.049 426.672 139.034C427.847 140.02 428.582 141.431 428.718 142.959Z" fill="#F5F5F5"/>
<path d="M367.57 181.178C367.668 182.316 367.427 183.458 366.877 184.46C366.327 185.461 365.492 186.277 364.478 186.804C363.464 187.331 362.317 187.545 361.181 187.42C360.045 187.295 358.972 186.836 358.097 186.101C357.222 185.366 356.585 184.388 356.266 183.291C355.947 182.194 355.96 181.027 356.305 179.937C356.649 178.848 357.308 177.884 358.2 177.17C359.091 176.455 360.175 176.021 361.313 175.922C362.069 175.855 362.831 175.937 363.556 176.165C364.28 176.394 364.952 176.762 365.533 177.251C366.114 177.739 366.593 178.337 366.943 179.011C367.292 179.685 367.505 180.421 367.57 181.178Z" fill="#F5F5F5"/>
<path d="M399.575 178.369C399.675 179.51 399.436 180.655 398.886 181.659C398.336 182.664 397.5 183.482 396.485 184.012C395.469 184.541 394.32 184.757 393.181 184.633C392.043 184.509 390.967 184.05 390.089 183.314C389.212 182.578 388.573 181.599 388.252 180.499C387.932 179.4 387.944 178.23 388.289 177.138C388.633 176.046 389.294 175.08 390.188 174.364C391.081 173.647 392.167 173.212 393.308 173.113C394.835 172.98 396.353 173.459 397.528 174.444C398.703 175.43 399.439 176.841 399.575 178.369Z" fill="#F5F5F5"/>
<path d="M431.569 175.56C431.67 176.701 431.43 177.846 430.88 178.85C430.33 179.855 429.495 180.673 428.479 181.203C427.464 181.732 426.314 181.948 425.176 181.824C424.037 181.7 422.961 181.241 422.084 180.505C421.206 179.769 420.567 178.789 420.246 177.69C419.926 176.591 419.939 175.421 420.283 174.329C420.628 173.237 421.289 172.271 422.182 171.555C423.075 170.838 424.161 170.403 425.302 170.304C426.83 170.171 428.348 170.65 429.523 171.635C430.698 172.621 431.434 174.032 431.569 175.56Z" fill="#F5F5F5"/>
<path d="M424.653 177.454L358.919 183.199L417.205 112.38L357.504 117.604C357.337 117.62 357.169 117.602 357.009 117.552C356.849 117.503 356.701 117.421 356.573 117.313C356.445 117.205 356.34 117.072 356.265 116.923C356.189 116.774 356.143 116.611 356.131 116.444C356.102 116.11 356.206 115.777 356.422 115.52C356.637 115.263 356.946 115.101 357.281 115.072L423.025 109.326L364.729 180.146L424.451 174.922C424.787 174.895 425.121 175.001 425.38 175.218C425.638 175.435 425.802 175.745 425.834 176.081C425.847 176.249 425.827 176.418 425.774 176.578C425.722 176.738 425.639 176.886 425.529 177.013C425.419 177.141 425.285 177.245 425.135 177.321C424.985 177.397 424.821 177.442 424.653 177.454Z" fill="#E6E6E6"/>
<path d="M425.664 303.889C425.563 303.579 425.372 303.306 425.117 303.103C424.862 302.901 424.552 302.778 424.227 302.75C421.369 302.619 418.663 301.423 416.641 299.399C414.013 296.75 412.47 292.738 412.215 287.971C412.19 287.541 412.003 287.137 411.691 286.84C411.378 286.544 410.964 286.378 410.534 286.375C410.301 286.377 410.071 286.425 409.857 286.517C409.644 286.61 409.451 286.745 409.291 286.914C409.131 287.083 409.007 287.283 408.926 287.501C408.845 287.719 408.809 287.952 408.821 288.184C409.119 293.781 411.013 298.569 414.236 301.793C416.761 304.322 420.111 305.859 423.674 306.123H423.919C424.199 306.145 424.479 306.097 424.736 305.983C424.993 305.87 425.217 305.695 425.39 305.474C425.563 305.253 425.678 304.992 425.726 304.716C425.774 304.439 425.752 304.155 425.664 303.889Z" fill="#F0F0F0"/>
<path d="M422.259 324.307C408.161 323.073 397.989 313.465 394.776 298.463C394.725 298.237 394.72 298.004 394.761 297.777C394.802 297.55 394.889 297.333 395.017 297.14C395.144 296.947 395.309 296.782 395.501 296.655C395.694 296.527 395.911 296.44 396.138 296.399C396.568 296.322 397.012 296.414 397.376 296.656C397.741 296.898 397.998 297.27 398.096 297.697C400.979 311.178 410.023 319.817 422.568 320.913C436.314 322.115 451.072 313.071 453.721 290.281C453.767 289.836 453.986 289.428 454.33 289.143C454.675 288.858 455.117 288.72 455.562 288.759C455.788 288.778 456.007 288.841 456.208 288.946C456.408 289.051 456.585 289.195 456.729 289.369C456.873 289.544 456.98 289.746 457.045 289.962C457.11 290.179 457.13 290.407 457.105 290.632C454.562 312.124 440.432 325.893 422.259 324.307Z" fill="#F0F0F0"/>
<path d="M395.659 283.513C395.434 283.495 395.214 283.431 395.014 283.326C394.813 283.222 394.636 283.078 394.492 282.903C394.348 282.728 394.241 282.527 394.176 282.31C394.112 282.093 394.091 281.866 394.116 281.641C396.649 260.148 410.779 246.369 428.941 247.965C444.901 249.359 455.594 261.276 457.265 279.226C457.282 279.451 457.254 279.677 457.183 279.892C457.112 280.107 456.999 280.305 456.85 280.475C456.702 280.645 456.521 280.785 456.318 280.884C456.115 280.984 455.894 281.042 455.669 281.056C455.225 281.076 454.79 280.924 454.456 280.63C454.123 280.336 453.917 279.924 453.881 279.481C452.338 263.308 442.794 252.594 428.654 251.359C414.96 250.157 400.139 259.19 397.5 281.96C397.481 282.183 397.419 282.4 397.316 282.599C397.213 282.797 397.072 282.974 396.901 283.118C396.73 283.262 396.533 283.372 396.32 283.439C396.106 283.507 395.882 283.532 395.659 283.513Z" fill="#F0F0F0"/>
<path d="M422.951 315.189C420.423 314.986 417.946 314.368 415.62 313.359C415.403 313.264 415.208 313.124 415.048 312.95C414.887 312.776 414.765 312.571 414.688 312.347C414.611 312.123 414.581 311.885 414.6 311.649C414.62 311.413 414.688 311.184 414.8 310.975C415 310.609 415.328 310.331 415.721 310.193C416.114 310.056 416.545 310.069 416.928 310.23C419.147 311.183 421.518 311.731 423.93 311.848C434.346 312.444 445.348 305.059 446.433 287.227C447.093 276.236 443.326 267.362 436.304 263.117C435.94 262.897 435.672 262.549 435.552 262.141C435.432 261.734 435.469 261.296 435.655 260.914C435.761 260.703 435.909 260.516 436.09 260.364C436.271 260.213 436.481 260.1 436.708 260.033C436.934 259.967 437.172 259.947 437.406 259.976C437.641 260.005 437.867 260.081 438.07 260.201C446.21 265.117 450.572 275.097 449.827 287.429C448.763 304.623 438.06 316.072 423.727 315.253L422.951 315.189Z" fill="#F0F0F0"/>
<path d="M407.799 304.581C407.603 304.713 407.382 304.804 407.15 304.847C406.917 304.891 406.678 304.886 406.448 304.833C406.217 304.78 406 304.68 405.81 304.54C405.619 304.4 405.46 304.221 405.341 304.017C402.188 298.153 400.802 291.5 401.351 284.865C402.352 268.405 412.215 257.201 425.611 257.009C425.847 257.004 426.081 257.048 426.299 257.138C426.517 257.229 426.714 257.363 426.878 257.532C427.042 257.702 427.169 257.904 427.251 258.125C427.333 258.347 427.369 258.582 427.356 258.818C427.329 259.243 427.144 259.644 426.837 259.939C426.529 260.235 426.122 260.404 425.696 260.414C415.758 260.605 405.778 268.117 404.756 285.067C404.24 291.056 405.474 297.067 408.31 302.367C408.523 302.735 408.589 303.171 408.495 303.585C408.4 304 408.151 304.363 407.799 304.602V304.581Z" fill="#F0F0F0"/>
<path d="M431.058 303.24C430.897 302.862 430.878 302.438 431.005 302.046C431.132 301.655 431.397 301.323 431.75 301.112C436.229 298.42 438.974 292.77 439.017 285.95C439.017 280.492 437.474 275.874 434.559 272.948C433.427 271.826 432.077 270.947 430.594 270.366C429.11 269.784 427.523 269.511 425.93 269.564C420.684 269.564 416.428 272.448 414.077 277.512C413.896 277.897 413.576 278.2 413.181 278.36C412.787 278.519 412.347 278.525 411.949 278.374C411.727 278.292 411.524 278.165 411.354 278C411.184 277.836 411.049 277.638 410.959 277.419C410.869 277.2 410.826 276.965 410.831 276.728C410.837 276.492 410.891 276.259 410.991 276.044C413.907 269.841 419.365 266.17 425.887 266.16C427.93 266.107 429.963 266.468 431.863 267.221C433.763 267.975 435.49 269.105 436.942 270.543C440.507 274.118 442.443 279.598 442.401 285.982C442.337 294.015 438.953 300.761 433.442 304.07C433.233 304.184 433.003 304.253 432.766 304.272C432.529 304.292 432.29 304.262 432.066 304.183C431.841 304.105 431.636 303.981 431.462 303.818C431.289 303.656 431.151 303.459 431.058 303.24Z" fill="#F0F0F0"/>
<path d="M418.801 290.674C418.574 290.767 418.329 290.809 418.084 290.798C417.839 290.788 417.599 290.724 417.381 290.612C417.162 290.5 416.971 290.342 416.819 290.149C416.668 289.955 416.56 289.732 416.503 289.493C416.386 289.036 416.301 288.557 416.226 288.067C415.258 281.683 418.684 276.161 424.185 275.172C425.466 274.893 426.794 274.918 428.063 275.245C429.333 275.572 430.508 276.192 431.495 277.055C431.68 277.22 431.825 277.424 431.921 277.653C432.016 277.881 432.059 278.128 432.045 278.376C432.032 278.623 431.963 278.864 431.844 279.081C431.725 279.299 431.558 279.486 431.356 279.63L431.25 279.704C430.931 279.926 430.545 280.031 430.158 280.002C429.77 279.973 429.404 279.812 429.122 279.545C428.525 279.041 427.82 278.683 427.061 278.498C426.302 278.313 425.51 278.307 424.749 278.481C420.557 279.236 418.961 283.599 419.557 287.514C419.62 287.897 419.684 288.27 419.78 288.578C419.883 288.979 419.837 289.403 419.651 289.773C419.465 290.143 419.152 290.432 418.769 290.589L418.801 290.674Z" fill="#F0F0F0"/>
<path d="M424.43 297.228C424.161 297.202 423.904 297.108 423.682 296.954C423.461 296.801 423.282 296.594 423.162 296.352C423.043 296.11 422.987 295.842 423.001 295.573C423.014 295.303 423.096 295.042 423.238 294.813L423.387 294.579C423.54 294.335 423.756 294.138 424.013 294.008C424.27 293.879 424.558 293.822 424.845 293.845C425.379 293.875 425.914 293.843 426.441 293.749C430.101 293.089 431.761 289.685 431.761 286.216C431.75 285.799 431.891 285.393 432.157 285.072C432.423 284.751 432.796 284.538 433.208 284.471C433.444 284.435 433.685 284.449 433.915 284.512C434.146 284.575 434.36 284.686 434.545 284.838C434.729 284.989 434.88 285.178 434.987 285.392C435.094 285.605 435.155 285.839 435.165 286.078C435.261 291.632 431.973 296.218 427.047 297.101C426.184 297.26 425.304 297.303 424.43 297.228Z" fill="#F0F0F0"/>
<path d="M425.185 290.94C424.326 290.868 423.511 290.528 422.854 289.969C422.198 289.41 421.733 288.659 421.525 287.823C421.465 287.587 421.462 287.34 421.517 287.102C421.571 286.865 421.682 286.644 421.839 286.458C421.996 286.271 422.195 286.125 422.42 286.031C422.645 285.938 422.889 285.899 423.132 285.918H423.525C423.823 285.949 424.105 286.067 424.338 286.255C424.57 286.444 424.743 286.697 424.834 286.982C424.871 287.13 424.954 287.263 425.07 287.363C425.186 287.462 425.331 287.522 425.483 287.535C426.302 287.61 426.441 286.471 426.462 286.195C426.511 285.781 426.433 285.361 426.238 284.992C425.945 284.638 425.793 284.186 425.813 283.726C425.84 283.388 425.967 283.066 426.178 282.801C426.39 282.535 426.676 282.339 426.999 282.238C427.323 282.136 427.669 282.133 427.994 282.23C428.319 282.326 428.608 282.518 428.824 282.779C429.654 283.828 430.037 285.163 429.888 286.493C429.611 289.291 427.643 291.153 425.185 290.94Z" fill="#F0F0F0"/>
<path d="M393.18 252.86C392.957 252.841 392.741 252.778 392.543 252.676C392.344 252.573 392.168 252.432 392.025 252.261C391.882 252.089 391.774 251.892 391.707 251.679C391.64 251.465 391.617 251.241 391.637 251.019L392.924 236.261L407.682 237.559C407.905 237.578 408.121 237.641 408.319 237.743C408.518 237.846 408.693 237.987 408.837 238.158C408.98 238.33 409.088 238.527 409.155 238.74C409.222 238.954 409.245 239.178 409.225 239.4C409.206 239.623 409.144 239.84 409.041 240.039C408.938 240.237 408.797 240.414 408.627 240.558C408.456 240.702 408.258 240.812 408.045 240.879C407.832 240.947 407.607 240.972 407.384 240.953L396.021 239.953L395.031 251.317C395.011 251.54 394.947 251.757 394.843 251.955C394.739 252.153 394.597 252.329 394.425 252.472C394.253 252.615 394.055 252.723 393.841 252.79C393.627 252.856 393.403 252.88 393.18 252.86Z" fill="#F0F0F0"/>
<path d="M463.33 258.999C463.107 258.98 462.89 258.918 462.692 258.815C462.494 258.712 462.318 258.571 462.175 258.4C462.031 258.229 461.923 258.031 461.857 257.818C461.79 257.605 461.766 257.38 461.787 257.158L462.776 245.795L451.413 244.805C451.19 244.785 450.973 244.721 450.775 244.617C450.576 244.513 450.401 244.371 450.257 244.199C450.114 244.027 450.006 243.829 449.94 243.615C449.873 243.401 449.849 243.177 449.87 242.954C449.889 242.731 449.951 242.515 450.054 242.316C450.157 242.118 450.298 241.942 450.469 241.799C450.64 241.656 450.838 241.547 451.051 241.481C451.264 241.414 451.488 241.39 451.711 241.411L466.468 242.698L465.181 257.488C465.133 257.932 464.911 258.34 464.565 258.623C464.218 258.906 463.775 259.041 463.33 258.999Z" fill="#F0F0F0"/>
<path d="M458.105 338.352L443.348 337.065C443.125 337.045 442.908 336.981 442.71 336.877C442.511 336.773 442.335 336.631 442.192 336.459C442.049 336.287 441.941 336.088 441.874 335.875C441.808 335.661 441.784 335.436 441.805 335.213C441.823 334.991 441.886 334.774 441.989 334.576C442.092 334.378 442.233 334.202 442.404 334.059C442.575 333.915 442.773 333.807 442.986 333.74C443.199 333.674 443.423 333.65 443.645 333.67L455.009 334.66L455.999 323.307C456.017 323.083 456.08 322.865 456.183 322.666C456.287 322.466 456.429 322.289 456.601 322.145C456.773 322 456.972 321.892 457.186 321.824C457.401 321.757 457.626 321.733 457.85 321.754C458.072 321.772 458.289 321.835 458.487 321.938C458.685 322.041 458.861 322.182 459.005 322.353C459.148 322.524 459.256 322.722 459.323 322.935C459.389 323.148 459.413 323.372 459.393 323.594L458.105 338.352Z" fill="#F0F0F0"/>
<path d="M399.319 333.181L384.562 331.883L385.849 317.136C385.892 316.686 386.111 316.271 386.457 315.98C386.803 315.69 387.25 315.547 387.7 315.582C387.923 315.603 388.14 315.666 388.338 315.77C388.537 315.874 388.712 316.016 388.856 316.188C388.999 316.36 389.107 316.559 389.173 316.772C389.24 316.986 389.264 317.211 389.243 317.434L388.254 328.776L399.606 329.776C399.829 329.795 400.046 329.858 400.245 329.96C400.444 330.063 400.62 330.204 400.765 330.375C400.909 330.546 401.018 330.743 401.086 330.956C401.154 331.17 401.179 331.394 401.16 331.617C401.122 332.068 400.907 332.486 400.562 332.779C400.217 333.072 399.77 333.216 399.319 333.181Z" fill="#F0F0F0"/>
<path d="M79.5128 301.25C79.2355 301.271 78.9611 301.183 78.7483 301.004C78.5356 300.825 78.4013 300.57 78.3743 300.293L77.5869 291.227L86.6522 290.429C86.9295 290.409 87.2038 290.497 87.4166 290.676C87.6294 290.855 87.7637 291.11 87.7907 291.387C87.8086 291.663 87.7187 291.934 87.54 292.145C87.3613 292.355 87.1078 292.488 86.8331 292.515L79.8532 293.132L80.4597 300.112C80.4807 300.387 80.3935 300.66 80.2168 300.873C80.04 301.085 79.7876 301.221 79.5128 301.25Z" fill="#E0E0E0"/>
<path d="M122.647 297.473C122.372 297.494 122.099 297.407 121.886 297.23C121.674 297.053 121.538 296.801 121.509 296.526L120.902 289.536L113.912 290.153C113.634 290.174 113.36 290.085 113.147 289.906C112.935 289.727 112.8 289.472 112.773 289.195C112.752 288.918 112.841 288.644 113.02 288.431C113.199 288.218 113.454 288.084 113.731 288.057L122.796 287.269L123.594 296.335C123.615 296.61 123.528 296.883 123.351 297.096C123.174 297.308 122.922 297.443 122.647 297.473Z" fill="#E0E0E0"/>
<path d="M127.116 336.533L118.04 337.331C117.763 337.351 117.489 337.263 117.276 337.084C117.063 336.905 116.929 336.65 116.902 336.373C116.881 336.096 116.969 335.821 117.148 335.609C117.327 335.396 117.583 335.261 117.859 335.234L124.839 334.628L124.233 327.648C124.212 327.373 124.299 327.1 124.476 326.887C124.652 326.675 124.905 326.539 125.18 326.51C125.455 326.489 125.728 326.576 125.941 326.753C126.153 326.929 126.288 327.182 126.318 327.457L127.116 336.533Z" fill="#E0E0E0"/>
<path d="M90.9613 339.693L81.9279 340.48L81.1299 331.404C81.112 331.129 81.2019 330.857 81.3806 330.646C81.5593 330.436 81.8128 330.303 82.0875 330.276C82.3614 330.258 82.6316 330.347 82.8417 330.523C83.0519 330.7 83.1858 330.95 83.2154 331.223L83.8325 338.214L90.8123 337.597C91.0896 337.576 91.364 337.664 91.5767 337.843C91.7895 338.022 91.9238 338.277 91.9508 338.554C91.9609 338.694 91.9433 338.834 91.899 338.967C91.8547 339.1 91.7846 339.223 91.6927 339.329C91.6007 339.435 91.4888 339.521 91.3632 339.584C91.2377 339.646 91.1011 339.683 90.9613 339.693Z" fill="#E0E0E0"/>
<path d="M121.913 150.024L87.248 153.003L86.5351 144.885C86.483 141.01 87.8979 137.259 90.4959 134.384C93.0939 131.509 96.6829 129.723 100.543 129.384C104.403 129.045 108.248 130.177 111.308 132.555C114.368 134.933 116.415 138.379 117.04 142.204L117.444 146.928L122.456 146.491L122.041 141.767C121.807 139.103 121.052 136.51 119.816 134.138C118.581 131.765 116.891 129.659 114.841 127.94C112.792 126.221 110.425 124.922 107.874 124.118C105.322 123.314 102.638 123.02 99.9734 123.254C94.592 123.725 89.6183 126.315 86.1463 130.453C84.4272 132.502 83.1285 134.87 82.3244 137.421C81.5202 139.972 81.2265 142.656 81.4598 145.321L82.1727 153.493C80.1988 153.879 78.4375 154.981 77.2275 156.588C76.0176 158.195 75.4445 160.192 75.6185 162.196L78.0976 190.541C78.186 191.611 78.4849 192.653 78.9771 193.607C79.4693 194.561 80.1451 195.408 80.9656 196.1C81.7862 196.792 82.7354 197.315 83.7588 197.639C84.7821 197.964 85.8594 198.082 86.9288 197.989L125.797 194.595C126.867 194.506 127.908 194.208 128.862 193.715C129.816 193.223 130.664 192.547 131.356 191.727C132.048 190.906 132.571 189.957 132.895 188.934C133.219 187.91 133.338 186.833 133.245 185.764L130.766 157.419C130.671 156.352 130.366 155.314 129.87 154.364C129.373 153.415 128.695 152.573 127.872 151.886C127.05 151.199 126.101 150.681 125.078 150.362C124.056 150.042 122.98 149.927 121.913 150.024ZM107.166 171.868L108.017 181.625C108.075 182.017 108.051 182.418 107.948 182.801C107.845 183.184 107.665 183.542 107.419 183.854C107.173 184.165 106.866 184.423 106.517 184.611C106.168 184.8 105.784 184.915 105.388 184.95C104.993 184.984 104.595 184.938 104.218 184.814C103.841 184.689 103.494 184.489 103.197 184.226C102.9 183.962 102.66 183.641 102.492 183.281C102.324 182.922 102.231 182.532 102.218 182.135L101.367 172.368C100.489 171.829 99.8042 171.027 99.4089 170.075C99.0136 169.124 98.9285 168.073 99.1657 167.07C99.4029 166.068 99.9503 165.166 100.73 164.493C101.51 163.819 102.482 163.409 103.508 163.321C104.534 163.232 105.562 163.47 106.446 164C107.329 164.529 108.023 165.324 108.428 166.271C108.833 167.218 108.93 168.269 108.703 169.274C108.476 170.279 107.939 171.186 107.166 171.868Z" fill="#EBEBEB"/>
<path d="M181.348 166.399L177.848 160.664C176.083 160.915 174.292 160.915 172.528 160.664L169.016 166.378L168.346 166.197C166.071 165.597 163.887 164.692 161.856 163.505L161.26 163.164L162.739 156.951C162.767 156.83 162.82 156.716 162.893 156.616C162.966 156.516 163.058 156.431 163.164 156.367C163.27 156.303 163.387 156.26 163.51 156.241C163.632 156.223 163.757 156.229 163.877 156.259C164.118 156.317 164.327 156.468 164.456 156.68C164.586 156.891 164.627 157.146 164.569 157.387L163.399 162.228C164.911 163.052 166.505 163.715 168.155 164.207L171.581 158.61L172.208 158.717C174.196 159.036 176.222 159.036 178.209 158.717L178.827 158.61L182.253 164.207C183.904 163.719 185.498 163.055 187.009 162.228L185.487 155.844L185.998 155.472C187.384 154.472 188.626 153.287 189.69 151.95C189.838 151.757 190.055 151.629 190.295 151.594C190.535 151.558 190.78 151.617 190.977 151.758C191.081 151.83 191.169 151.922 191.235 152.029C191.302 152.136 191.346 152.255 191.365 152.38C191.384 152.504 191.377 152.631 191.345 152.753C191.313 152.875 191.257 152.989 191.18 153.088C190.134 154.409 188.93 155.595 187.594 156.621L189.158 163.143L188.551 163.484C186.523 164.668 184.343 165.574 182.072 166.175L181.348 166.399ZM159.834 153.908C159.547 153.578 159.26 153.227 158.983 152.844L152.461 154.408L152.109 153.812C150.931 151.776 150.026 149.594 149.418 147.321L149.247 146.651L154.961 143.14C154.71 141.375 154.71 139.584 154.961 137.82L149.247 134.319L149.418 133.638C150.026 131.37 150.931 129.191 152.109 127.159L152.461 126.552L158.983 128.116C160.072 126.691 161.346 125.417 162.771 124.328L161.59 119.391C161.532 119.15 161.573 118.896 161.702 118.684C161.832 118.473 162.04 118.322 162.281 118.264C162.4 118.235 162.523 118.23 162.644 118.25C162.764 118.269 162.88 118.312 162.984 118.377C163.088 118.441 163.178 118.525 163.249 118.624C163.32 118.724 163.371 118.836 163.399 118.955L164.877 125.105L164.367 125.467C162.728 126.646 161.29 128.084 160.111 129.723L159.738 130.234L153.354 128.712C152.527 130.222 151.863 131.817 151.375 133.468L156.961 136.894L156.866 137.511C156.51 139.496 156.51 141.528 156.866 143.512L156.961 144.14L151.375 147.566C151.865 149.213 152.529 150.804 153.354 152.312L159.738 150.79L160.111 151.301C160.441 151.783 160.797 152.248 161.175 152.695C161.339 152.867 161.43 153.095 161.43 153.333C161.43 153.571 161.339 153.799 161.175 153.971C161.084 154.058 160.977 154.126 160.859 154.17C160.741 154.214 160.616 154.233 160.491 154.227C160.365 154.221 160.242 154.19 160.13 154.135C160.017 154.08 159.916 154.003 159.834 153.908ZM197.861 154.429L195.457 153.854C195.216 153.796 195.007 153.645 194.878 153.433C194.748 153.222 194.708 152.968 194.765 152.726C194.823 152.485 194.975 152.277 195.186 152.147C195.398 152.018 195.652 151.977 195.893 152.035L196.957 152.28C197.779 150.772 198.439 149.181 198.925 147.534L193.339 144.108L193.446 143.48C193.801 141.496 193.801 139.464 193.446 137.479L193.339 136.862L198.925 133.436C198.441 131.785 197.781 130.191 196.957 128.68L190.573 130.202L190.211 129.691C189.029 128.054 187.592 126.617 185.955 125.435L185.445 125.073L186.966 118.689C185.456 117.865 183.861 117.205 182.21 116.721L178.752 122.36L178.135 122.254C176.147 121.934 174.122 121.934 172.134 122.254L171.506 122.36L168.112 116.742L167.474 116.934C167.246 117.008 166.999 116.991 166.784 116.886C166.569 116.781 166.404 116.595 166.325 116.37C166.281 116.253 166.26 116.129 166.265 116.004C166.27 115.88 166.299 115.758 166.352 115.645C166.404 115.532 166.479 115.43 166.571 115.347C166.663 115.263 166.771 115.198 166.888 115.157C167.357 115.008 167.835 114.869 168.304 114.742L168.974 114.561L172.485 120.285C174.249 120.023 176.041 120.023 177.805 120.285L181.306 114.561L181.987 114.742C184.256 115.348 186.435 116.253 188.466 117.434L189.073 117.785L187.509 124.307C188.936 125.394 190.21 126.668 191.297 128.095L197.819 126.531L198.17 127.137C199.352 129.167 200.258 131.347 200.862 133.617L201.043 134.298L195.319 137.799C195.584 139.562 195.584 141.355 195.319 143.119L201.043 146.63L200.862 147.3C200.258 149.574 199.353 151.757 198.17 153.79L197.861 154.429ZM174.9 149.598C172.582 149.506 170.383 148.544 168.743 146.904C167.102 145.263 166.14 143.064 166.048 140.746C165.985 138.465 166.777 136.244 168.27 134.519C169.763 132.794 171.847 131.69 174.113 131.425C174.246 131.409 174.381 131.42 174.509 131.46C174.637 131.499 174.755 131.566 174.856 131.654C174.956 131.742 175.037 131.851 175.092 131.973C175.148 132.095 175.177 132.228 175.177 132.362C175.176 132.588 175.092 132.806 174.941 132.974C174.79 133.143 174.583 133.251 174.358 133.277C172.781 133.456 171.307 134.149 170.162 135.248C169.017 136.346 168.264 137.791 168.02 139.358C167.775 140.926 168.052 142.531 168.807 143.927C169.563 145.322 170.756 146.431 172.203 147.082C173.65 147.734 175.271 147.893 176.817 147.534C178.363 147.175 179.748 146.319 180.76 145.097C181.772 143.874 182.355 142.354 182.419 140.768C182.483 139.182 182.024 137.619 181.114 136.32C180.983 136.135 180.925 135.909 180.953 135.684C180.98 135.46 181.091 135.254 181.263 135.107C181.362 135.018 181.479 134.952 181.606 134.913C181.733 134.873 181.867 134.861 181.998 134.877C182.13 134.893 182.257 134.937 182.371 135.006C182.484 135.075 182.582 135.167 182.657 135.277C183.625 136.662 184.188 138.288 184.285 139.975C184.381 141.661 184.007 143.342 183.203 144.828C182.399 146.314 181.198 147.547 179.734 148.389C178.269 149.232 176.6 149.65 174.911 149.598H174.9Z" fill="#F0F0F0"/>
<path d="M115.242 244.284L112.975 240.592C111.829 240.762 110.664 240.762 109.517 240.592L107.251 244.284L106.815 244.167C105.346 243.779 103.936 243.196 102.623 242.432L102.24 242.209L103.197 238.187C103.235 238.033 103.332 237.899 103.468 237.816C103.603 237.732 103.766 237.705 103.921 237.74C103.998 237.759 104.072 237.793 104.136 237.84C104.201 237.887 104.255 237.946 104.297 238.014C104.338 238.083 104.366 238.158 104.378 238.237C104.39 238.316 104.387 238.397 104.368 238.474L103.623 241.603C104.599 242.137 105.63 242.565 106.698 242.879L108.911 239.272L109.305 239.336C110.59 239.549 111.902 239.549 113.188 239.336L113.582 239.272L115.806 242.879C116.868 242.559 117.894 242.131 118.87 241.603L117.891 237.495L118.221 237.251C119.115 236.608 119.917 235.845 120.604 234.984C120.698 234.858 120.837 234.773 120.993 234.75C121.148 234.726 121.307 234.764 121.434 234.857C121.5 234.903 121.555 234.962 121.597 235.03C121.64 235.098 121.668 235.174 121.681 235.253C121.694 235.333 121.691 235.414 121.672 235.492C121.654 235.57 121.62 235.643 121.573 235.708C120.895 236.561 120.116 237.33 119.253 237.996L120.317 242.252L119.923 242.475C118.611 243.24 117.201 243.824 115.731 244.209L115.242 244.284ZM101.346 236.208L100.793 235.538L96.5366 236.538L96.3132 236.155C95.5636 234.836 94.9946 233.422 94.6214 231.952L94.5044 231.516L98.1965 229.249C98.0262 228.103 98.0262 226.938 98.1965 225.791L94.5044 223.525L94.6214 223.089C95.0071 221.619 95.5905 220.209 96.3558 218.897L96.5792 218.503L100.835 219.567C101.52 218.635 102.317 217.792 103.208 217.056L102.452 213.864C102.434 213.787 102.43 213.707 102.442 213.629C102.455 213.551 102.483 213.476 102.524 213.408C102.566 213.341 102.62 213.283 102.685 213.237C102.749 213.191 102.822 213.158 102.899 213.141C103.054 213.105 103.217 213.132 103.353 213.216C103.488 213.299 103.585 213.433 103.623 213.587L104.58 217.556L104.24 217.801C103.186 218.557 102.262 219.481 101.506 220.535L101.261 220.865L97.1538 219.886C96.6254 220.862 96.1976 221.888 95.877 222.951L99.4839 225.164L99.4201 225.568C99.3104 226.208 99.2534 226.855 99.2498 227.505C99.2534 228.157 99.3103 228.808 99.4201 229.452L99.4839 229.845L95.877 232.058C96.1956 233.125 96.6234 234.155 97.1538 235.133L101.261 234.144L101.506 234.474C101.725 234.789 101.963 235.091 102.218 235.378C102.323 235.489 102.382 235.635 102.382 235.788C102.382 235.94 102.323 236.087 102.218 236.197C102.163 236.258 102.096 236.307 102.022 236.34C101.947 236.374 101.866 236.392 101.784 236.393C101.703 236.394 101.621 236.378 101.546 236.346C101.471 236.314 101.402 236.267 101.346 236.208ZM125.914 236.538L124.36 236.176C124.283 236.157 124.209 236.124 124.145 236.076C124.08 236.029 124.026 235.97 123.984 235.902C123.943 235.834 123.915 235.758 123.903 235.679C123.891 235.6 123.894 235.519 123.913 235.442C123.931 235.365 123.964 235.292 124.01 235.227C124.056 235.163 124.114 235.108 124.181 235.067C124.249 235.025 124.324 234.997 124.402 234.985C124.48 234.973 124.56 234.976 124.637 234.995L125.307 235.155C125.842 234.178 126.27 233.148 126.584 232.08L122.977 229.867L123.041 229.473C123.151 228.83 123.208 228.178 123.211 227.526C123.208 226.877 123.151 226.229 123.041 225.589L122.977 225.185L126.584 222.972C126.268 221.908 125.84 220.881 125.307 219.908L121.2 220.886L120.955 220.557C120.199 219.502 119.275 218.578 118.221 217.822L117.891 217.577L118.87 213.47C117.897 212.938 116.869 212.51 115.806 212.194L113.582 215.801L113.188 215.737C111.902 215.524 110.59 215.524 109.305 215.737L108.911 215.801L106.698 212.194L106.283 212.321C106.135 212.369 105.974 212.356 105.835 212.287C105.695 212.217 105.589 212.096 105.538 211.949C105.509 211.874 105.496 211.795 105.499 211.715C105.502 211.635 105.52 211.556 105.554 211.484C105.588 211.411 105.636 211.346 105.695 211.293C105.755 211.239 105.824 211.198 105.9 211.172L106.815 210.895L107.251 210.789L109.517 214.481C110.664 214.311 111.829 214.311 112.975 214.481L115.242 210.789L115.678 210.895C117.146 211.289 118.556 211.876 119.87 212.64L120.264 212.864L119.2 217.12C120.116 217.829 120.938 218.651 121.647 219.567L125.903 218.503L126.126 218.897C126.892 220.209 127.475 221.619 127.861 223.089L127.978 223.525L124.286 225.791C124.456 226.938 124.456 228.103 124.286 229.249L127.978 231.516L127.861 231.952C127.473 233.421 126.89 234.831 126.126 236.144L125.914 236.538ZM111.082 233.42C109.636 233.321 108.277 232.693 107.265 231.656C106.253 230.618 105.659 229.244 105.596 227.797C105.533 226.349 106.005 224.928 106.923 223.807C107.84 222.685 109.139 221.941 110.571 221.716C110.656 221.707 110.742 221.716 110.824 221.743C110.906 221.769 110.981 221.812 111.045 221.869C111.109 221.926 111.161 221.996 111.196 222.074C111.232 222.152 111.251 222.237 111.252 222.323C111.253 222.47 111.199 222.613 111.1 222.723C111.002 222.833 110.866 222.903 110.72 222.919C109.822 223.021 108.974 223.381 108.276 223.956C107.579 224.53 107.062 225.293 106.789 226.154C106.516 227.015 106.498 227.937 106.737 228.808C106.976 229.679 107.462 230.463 108.136 231.064C108.81 231.665 109.644 232.058 110.536 232.197C111.429 232.335 112.343 232.211 113.167 231.842C113.991 231.472 114.691 230.872 115.182 230.114C115.673 229.356 115.934 228.472 115.933 227.568C115.935 226.608 115.638 225.671 115.082 224.887C115.001 224.766 114.966 224.62 114.983 224.476C115.001 224.331 115.07 224.198 115.178 224.1C115.242 224.042 115.318 223.999 115.4 223.973C115.482 223.947 115.569 223.938 115.654 223.948C115.74 223.959 115.822 223.987 115.896 224.031C115.97 224.076 116.033 224.135 116.082 224.206C116.705 225.101 117.066 226.152 117.128 227.24C117.189 228.329 116.947 229.413 116.428 230.372C115.91 231.332 115.136 232.128 114.192 232.674C113.248 233.219 112.171 233.493 111.082 233.463V233.42Z" fill="#E6E6E6"/>
<path d="M266 454.339C379.936 454.339 472.299 448.946 472.299 442.294C472.299 435.642 379.936 430.25 266 430.25C152.064 430.25 59.7009 435.642 59.7009 442.294C59.7009 448.946 152.064 454.339 266 454.339Z" fill="#F5F5F5"/>
<path d="M386.711 155.163H352.067L327.595 435.261H362.239C367.101 435.167 371.761 433.298 375.34 430.005C378.919 426.712 381.17 422.224 381.667 417.386L403.043 173.028C403.292 170.751 403.052 168.447 402.34 166.27C401.628 164.094 400.461 162.093 398.916 160.403C397.37 158.713 395.483 157.371 393.378 156.468C391.274 155.564 389.001 155.119 386.711 155.163Z" fill="#0C768A"/>
<path d="M379.646 155.163H262.393C257.531 155.254 252.869 157.121 249.288 160.412C245.708 163.703 243.454 168.19 242.954 173.028L221.578 417.386C221.332 419.661 221.572 421.962 222.283 424.138C222.994 426.313 224.16 428.312 225.702 430.002C227.245 431.692 229.129 433.036 231.23 433.942C233.331 434.849 235.601 435.298 237.889 435.261H355.131C359.987 435.157 364.638 433.283 368.21 429.992C371.782 426.7 374.029 422.217 374.528 417.386L395.904 173.028C396.151 170.757 395.913 168.46 395.206 166.289C394.499 164.117 393.338 162.121 391.801 160.431C390.264 158.742 388.385 157.399 386.29 156.491C384.194 155.583 381.93 155.13 379.646 155.163Z" fill="#0C768A"/>
<path opacity="0.3" d="M379.646 155.163H262.393C257.531 155.254 252.869 157.121 249.288 160.412C245.708 163.703 243.454 168.19 242.954 173.028L221.578 417.386C221.332 419.661 221.572 421.962 222.283 424.138C222.994 426.313 224.16 428.312 225.702 430.002C227.245 431.692 229.129 433.036 231.23 433.942C233.331 434.849 235.601 435.298 237.889 435.261H355.131C359.987 435.157 364.638 433.283 368.21 429.992C371.782 426.7 374.029 422.217 374.528 417.386L395.904 173.028C396.151 170.757 395.913 168.46 395.206 166.289C394.499 164.117 393.338 162.121 391.801 160.431C390.264 158.742 388.385 157.399 386.29 156.491C384.194 155.583 381.93 155.13 379.646 155.163Z" fill="white"/>
<path opacity="0.4" d="M379.146 160.888H348.226C347.304 160.895 346.406 161.179 345.647 161.702C344.888 162.226 344.304 162.965 343.97 163.824C342.75 166.98 340.618 169.701 337.846 171.639C335.073 173.578 331.786 174.647 328.404 174.709H310.167C306.981 174.773 303.873 173.724 301.377 171.743C298.881 169.762 297.155 166.973 296.494 163.856C296.318 163.013 295.853 162.257 295.178 161.721C294.504 161.185 293.663 160.901 292.802 160.919H261.893C258.588 160.978 255.419 162.246 252.986 164.483C250.553 166.72 249.024 169.771 248.689 173.06L227.302 417.418C227.131 418.965 227.292 420.531 227.774 422.011C228.255 423.491 229.047 424.852 230.097 426.002C231.146 427.152 232.428 428.065 233.858 428.68C235.288 429.295 236.833 429.598 238.389 429.569H355.642C358.948 429.508 362.117 428.238 364.55 425.999C366.983 423.76 368.511 420.707 368.846 417.418L390.222 173.06C390.396 171.512 390.238 169.944 389.759 168.462C389.279 166.98 388.488 165.618 387.44 164.466C386.392 163.313 385.109 162.398 383.679 161.781C382.249 161.164 380.703 160.86 379.146 160.888Z" fill="white"/>
<path d="M349.928 293.664H267.873C267.309 293.673 266.749 293.563 266.231 293.339C265.713 293.116 265.249 292.785 264.869 292.368C264.488 291.952 264.201 291.459 264.025 290.923C263.85 290.387 263.79 289.82 263.851 289.259L264.266 284.556C264.388 283.364 264.942 282.257 265.824 281.446C266.706 280.634 267.855 280.174 269.054 280.151H351.12C351.684 280.142 352.244 280.253 352.761 280.476C353.279 280.699 353.744 281.03 354.124 281.447C354.505 281.863 354.792 282.356 354.967 282.892C355.143 283.428 355.202 283.995 355.142 284.556L354.738 289.259C354.613 290.454 354.055 291.562 353.169 292.374C352.283 293.186 351.13 293.644 349.928 293.664Z" fill="white"/>
<path d="M348.162 313.88H266.096C265.532 313.89 264.973 313.779 264.456 313.555C263.938 313.332 263.474 313.001 263.095 312.584C262.715 312.167 262.429 311.674 262.255 311.138C262.081 310.602 262.023 310.035 262.085 309.475L262.489 304.772C262.613 303.581 263.168 302.475 264.05 301.664C264.932 300.853 266.079 300.392 267.277 300.367H349.343C349.907 300.358 350.467 300.469 350.985 300.692C351.503 300.915 351.967 301.246 352.347 301.663C352.728 302.079 353.015 302.572 353.191 303.108C353.366 303.644 353.426 304.211 353.365 304.772L352.95 309.475C352.826 310.667 352.271 311.772 351.389 312.583C350.508 313.394 349.36 313.855 348.162 313.88Z" fill="white"/>
<path opacity="0.1" d="M324.999 165.463C324.864 166.787 324.247 168.015 323.267 168.915C322.286 169.815 321.01 170.325 319.679 170.346C319.053 170.358 318.433 170.236 317.858 169.988C317.283 169.741 316.768 169.374 316.346 168.912C315.924 168.45 315.606 167.903 315.412 167.309C315.218 166.714 315.153 166.084 315.221 165.463C315.356 164.138 315.972 162.91 316.953 162.01C317.933 161.11 319.21 160.601 320.541 160.579C321.166 160.568 321.787 160.69 322.362 160.937C322.936 161.184 323.452 161.551 323.873 162.013C324.295 162.475 324.614 163.022 324.808 163.617C325.002 164.211 325.067 164.841 324.999 165.463Z" fill="black"/>
<path opacity="0.1" d="M322.786 165.463C322.711 166.185 322.374 166.856 321.839 167.348C321.304 167.84 320.608 168.119 319.881 168.133C319.539 168.14 319.199 168.073 318.885 167.938C318.57 167.803 318.289 167.603 318.058 167.35C317.827 167.097 317.653 166.798 317.547 166.472C317.442 166.147 317.407 165.803 317.444 165.463C317.517 164.739 317.853 164.067 318.389 163.575C318.924 163.083 319.622 162.804 320.349 162.792C320.691 162.787 321.03 162.855 321.343 162.99C321.657 163.126 321.938 163.327 322.168 163.579C322.399 163.832 322.573 164.13 322.679 164.455C322.786 164.779 322.822 165.123 322.786 165.463Z" fill="black"/>
<g opacity="0.8">
<path d="M364.707 173.613C364.524 173.615 364.341 173.579 364.173 173.506C364.004 173.433 363.853 173.325 363.73 173.189C363.606 173.053 363.512 172.893 363.455 172.718C363.398 172.544 363.379 172.359 363.399 172.176L363.633 169.559C363.672 169.172 363.852 168.813 364.138 168.55C364.424 168.287 364.797 168.139 365.186 168.133C365.369 168.131 365.55 168.167 365.717 168.239C365.885 168.312 366.036 168.419 366.159 168.553C366.283 168.688 366.377 168.847 366.434 169.02C366.492 169.194 366.513 169.377 366.495 169.559L366.261 172.176C366.222 172.564 366.042 172.924 365.756 173.189C365.47 173.454 365.097 173.604 364.707 173.613Z" fill="white"/>
<path d="M376.156 173.613C375.972 173.615 375.79 173.579 375.622 173.506C375.453 173.433 375.302 173.325 375.178 173.189C375.055 173.053 374.961 172.893 374.904 172.718C374.847 172.544 374.828 172.359 374.847 172.176L375.39 166.037C375.429 165.65 375.609 165.291 375.895 165.029C376.182 164.766 376.555 164.617 376.943 164.611C377.126 164.609 377.307 164.645 377.475 164.718C377.643 164.79 377.793 164.897 377.917 165.032C378.04 165.166 378.134 165.325 378.192 165.499C378.249 165.672 378.27 165.855 378.252 166.037L377.709 172.176C377.671 172.564 377.491 172.924 377.205 173.189C376.919 173.454 376.546 173.604 376.156 173.613Z" fill="white"/>
<path d="M370.432 173.613C370.248 173.615 370.066 173.579 369.897 173.506C369.729 173.433 369.578 173.325 369.454 173.189C369.33 173.053 369.237 172.893 369.18 172.718C369.123 172.544 369.103 172.359 369.123 172.177L369.506 167.803C369.545 167.414 369.726 167.052 370.014 166.787C370.303 166.523 370.678 166.373 371.07 166.367C371.253 166.364 371.435 166.401 371.603 166.474C371.771 166.547 371.922 166.655 372.044 166.791C372.167 166.927 372.26 167.088 372.316 167.262C372.371 167.437 372.389 167.621 372.368 167.803L371.985 172.177C371.946 172.564 371.767 172.925 371.481 173.189C371.194 173.454 370.821 173.604 370.432 173.613Z" fill="white"/>
</g>
<g opacity="0.8">
<path d="M266.681 173.613H259.488C259.385 173.615 259.282 173.595 259.187 173.554C259.092 173.513 259.007 173.452 258.937 173.376C258.868 173.299 258.815 173.208 258.784 173.11C258.752 173.011 258.742 172.907 258.754 172.804L259.084 168.942C259.107 168.723 259.21 168.519 259.373 168.37C259.535 168.222 259.747 168.137 259.967 168.133H267.16C267.263 168.131 267.366 168.151 267.461 168.192C267.556 168.233 267.642 168.294 267.711 168.37C267.781 168.447 267.833 168.538 267.865 168.636C267.896 168.735 267.906 168.839 267.894 168.942L267.554 172.804C267.535 173.023 267.435 173.228 267.274 173.377C267.113 173.527 266.901 173.611 266.681 173.613Z" fill="white"/>
<path d="M270.012 172.559C269.908 172.562 269.804 172.541 269.709 172.501C269.613 172.46 269.527 172.399 269.457 172.323C269.387 172.246 269.333 172.156 269.3 172.057C269.268 171.959 269.256 171.854 269.267 171.751L269.426 169.985C269.447 169.764 269.549 169.56 269.712 169.411C269.876 169.261 270.088 169.178 270.309 169.176C270.413 169.174 270.516 169.194 270.611 169.235C270.706 169.275 270.791 169.336 270.861 169.413C270.93 169.49 270.983 169.58 271.014 169.679C271.046 169.778 271.056 169.882 271.044 169.985L270.895 171.751C270.871 171.97 270.769 172.173 270.606 172.322C270.443 172.471 270.232 172.556 270.012 172.559Z" fill="white"/>
</g>
<path d="M336.408 262.734C350.725 249.028 352.153 227.284 339.597 214.167C327.041 201.05 305.255 201.529 290.937 215.235C276.619 228.941 275.191 250.686 287.748 263.802C300.304 276.919 322.09 276.44 336.408 262.734Z" fill="white"/>
<path d="M313.795 237.676C304.772 237.676 297.143 241.113 296.494 248.572L295.771 256.86H328.467L329.191 248.572C329.84 241.113 322.828 237.676 313.795 237.676Z" fill="#0C768A"/>
<path d="M314.093 234.261C318.285 234.261 320.221 230.867 320.583 226.674C320.945 222.482 319.615 219.088 315.423 219.088C311.231 219.088 309.305 222.493 308.932 226.674C308.56 230.856 309.901 234.261 314.093 234.261Z" fill="#0C768A"/>
<path d="M346.183 286.62C343.959 286.62 342.076 287.472 341.927 289.312L341.746 291.366H349.822L350.003 289.312C350.152 287.472 348.417 286.62 346.183 286.62Z" fill="#0C768A"/>
<path d="M346.258 285.78C347.322 285.78 347.768 284.939 347.864 283.907C347.96 282.875 347.619 282.034 346.587 282.034C345.555 282.034 345.077 282.875 344.981 283.907C344.885 284.939 345.225 285.78 346.258 285.78Z" fill="#0C768A"/>
<path d="M321.328 334.096H289.408C288.542 334.112 287.684 333.943 286.888 333.601C286.093 333.259 285.38 332.751 284.796 332.112C284.212 331.473 283.771 330.716 283.502 329.894C283.234 329.071 283.143 328.2 283.237 327.339C283.426 325.51 284.278 323.813 285.633 322.568C286.987 321.324 288.75 320.617 290.589 320.583H322.509C323.374 320.569 324.232 320.739 325.027 321.082C325.821 321.424 326.534 321.932 327.117 322.571C327.7 323.21 328.142 323.965 328.411 324.787C328.681 325.609 328.772 326.479 328.68 327.339C328.493 329.17 327.642 330.868 326.287 332.113C324.932 333.358 323.168 334.064 321.328 334.096Z" fill="#0C768A"/>
<path d="M317.466 409.449H283.301C282.384 409.473 281.473 409.3 280.629 408.942C279.786 408.583 279.029 408.046 278.411 407.369C277.793 406.691 277.329 405.889 277.049 405.016C276.769 404.143 276.68 403.219 276.789 402.309L278.97 377.39C279.165 375.457 280.063 373.663 281.492 372.347C282.922 371.031 284.784 370.285 286.727 370.251H320.902C321.817 370.235 322.724 370.414 323.563 370.775C324.403 371.137 325.155 371.674 325.772 372.349C326.388 373.025 326.853 373.823 327.136 374.693C327.419 375.562 327.514 376.481 327.414 377.39L325.233 402.309C325.033 404.242 324.133 406.035 322.702 407.351C321.271 408.666 319.409 409.412 317.466 409.449Z" fill="#0C768A"/>
<g opacity="0.6">
<path d="M306.932 383.678C306.988 383.135 306.928 382.585 306.755 382.066C306.583 381.548 306.302 381.071 305.932 380.669C305.562 380.267 305.111 379.947 304.608 379.733C304.106 379.518 303.563 379.412 303.017 379.422C301.853 379.439 300.735 379.881 299.874 380.665C299.014 381.449 298.47 382.521 298.346 383.678C298.278 384.326 298.374 384.98 298.625 385.58C298.876 386.181 299.274 386.708 299.782 387.115L299.037 395.702C299.001 396.027 299.034 396.356 299.135 396.667C299.236 396.979 299.403 397.265 299.623 397.506C299.844 397.748 300.114 397.94 300.414 398.069C300.715 398.198 301.04 398.262 301.367 398.255C302.061 398.24 302.725 397.973 303.234 397.502C303.744 397.032 304.064 396.391 304.134 395.702L304.889 387.115C305.459 386.725 305.937 386.216 306.29 385.622C306.643 385.029 306.862 384.365 306.932 383.678Z" fill="white"/>
</g>
<path d="M321.2 375.443H316.795L317.859 363.111C318.045 361.4 317.865 359.668 317.33 358.032C316.796 356.395 315.92 354.891 314.759 353.619C313.599 352.347 312.182 351.337 310.601 350.655C309.02 349.972 307.313 349.634 305.591 349.662C301.933 349.734 298.427 351.141 295.735 353.618C293.042 356.095 291.348 359.472 290.972 363.111L289.908 375.443H285.503L286.567 363.111C287.063 358.281 289.309 353.8 292.883 350.512C296.456 347.225 301.109 345.36 305.964 345.268C308.249 345.229 310.516 345.677 312.614 346.581C314.713 347.485 316.595 348.826 318.136 350.513C319.676 352.201 320.84 354.197 321.55 356.369C322.26 358.541 322.5 360.839 322.254 363.111L321.2 375.443Z" fill="#0C768A"/>
<path d="M346.726 305.506L346.864 304.304C346.892 304.025 346.862 303.744 346.774 303.478C346.686 303.212 346.543 302.967 346.354 302.76C346.165 302.554 345.935 302.389 345.678 302.277C345.421 302.165 345.144 302.109 344.864 302.112C344.268 302.124 343.696 302.354 343.258 302.758C342.819 303.161 342.542 303.711 342.48 304.304L342.374 305.485C342.136 305.492 341.908 305.585 341.734 305.748C341.559 305.91 341.45 306.131 341.427 306.368L341.15 309.56C341.136 309.672 341.147 309.785 341.181 309.892C341.215 309.999 341.272 310.098 341.348 310.181C341.424 310.264 341.517 310.329 341.62 310.373C341.724 310.416 341.836 310.437 341.948 310.433H346.332C346.569 310.429 346.797 310.337 346.971 310.177C347.146 310.016 347.255 309.796 347.279 309.56L347.556 306.368C347.565 306.255 347.55 306.142 347.512 306.035C347.474 305.929 347.413 305.832 347.335 305.75C347.256 305.669 347.162 305.605 347.057 305.563C346.951 305.521 346.839 305.501 346.726 305.506ZM344.736 302.676C344.947 302.674 345.156 302.716 345.35 302.799C345.544 302.883 345.718 303.007 345.86 303.163C346.003 303.318 346.111 303.502 346.178 303.703C346.244 303.903 346.268 304.115 346.247 304.325L346.14 305.506H342.842L342.948 304.325C342.995 303.88 343.202 303.467 343.531 303.163C343.86 302.86 344.288 302.687 344.736 302.676Z" fill="#0C768A"/>
<path d="M280.736 306.772L279.204 306.453C279.162 306.445 279.121 306.426 279.087 306.4C279.052 306.373 279.024 306.339 279.005 306.3C278.985 306.261 278.975 306.218 278.975 306.175C278.974 306.131 278.983 306.088 279.002 306.049L279.641 304.538C279.667 304.473 279.67 304.4 279.648 304.333C279.626 304.266 279.581 304.209 279.521 304.172C279.461 304.135 279.39 304.121 279.32 304.131C279.251 304.142 279.187 304.176 279.14 304.229L277.981 305.421C277.953 305.457 277.917 305.485 277.877 305.505C277.836 305.525 277.792 305.535 277.747 305.535C277.702 305.535 277.657 305.525 277.616 305.505C277.576 305.485 277.54 305.457 277.513 305.421L276.566 304.229C276.363 303.974 275.927 304.229 276.002 304.538L276.374 306.049C276.385 306.093 276.387 306.139 276.379 306.184C276.371 306.229 276.354 306.271 276.329 306.309C276.304 306.347 276.272 306.38 276.234 306.404C276.196 306.429 276.153 306.446 276.108 306.453L274.523 306.772C274.182 306.836 274.14 307.315 274.469 307.379L276.002 307.698C276.044 307.706 276.085 307.724 276.119 307.751C276.154 307.778 276.182 307.812 276.2 307.852C276.219 307.891 276.228 307.934 276.227 307.978C276.226 308.021 276.214 308.064 276.193 308.102L275.576 309.624C275.549 309.689 275.547 309.762 275.569 309.829C275.591 309.896 275.636 309.953 275.696 309.99C275.755 310.027 275.827 310.041 275.896 310.031C275.966 310.02 276.03 309.986 276.076 309.933L277.236 308.741C277.266 308.709 277.302 308.683 277.342 308.665C277.383 308.648 277.426 308.639 277.47 308.639C277.514 308.639 277.557 308.648 277.598 308.665C277.638 308.683 277.674 308.709 277.704 308.741L278.651 309.933C278.853 310.188 279.289 309.933 279.204 309.624L278.832 308.113C278.816 308.023 278.836 307.93 278.888 307.855C278.94 307.779 279.019 307.727 279.109 307.709L280.694 307.39C281.024 307.315 281.066 306.836 280.736 306.772Z" fill="#263238"/>
<path d="M290.802 306.772L289.27 306.453C289.227 306.445 289.187 306.426 289.152 306.4C289.118 306.373 289.09 306.339 289.07 306.3C289.051 306.261 289.04 306.218 289.04 306.175C289.039 306.131 289.049 306.088 289.068 306.049L289.706 304.538C289.732 304.473 289.735 304.4 289.713 304.333C289.691 304.266 289.646 304.209 289.586 304.172C289.526 304.135 289.455 304.121 289.386 304.131C289.316 304.142 289.252 304.176 289.206 304.229L288.046 305.421C288.018 305.457 287.983 305.485 287.942 305.505C287.902 305.525 287.857 305.535 287.812 305.535C287.767 305.535 287.722 305.525 287.682 305.505C287.641 305.485 287.606 305.457 287.578 305.421L286.631 304.229C286.429 303.974 285.993 304.229 286.078 304.538L286.45 306.049C286.459 306.094 286.459 306.14 286.45 306.185C286.441 306.23 286.423 306.272 286.398 306.31C286.372 306.348 286.339 306.38 286.3 306.404C286.262 306.429 286.219 306.446 286.173 306.453L284.588 306.772C284.248 306.836 284.205 307.315 284.535 307.379L286.067 307.698C286.11 307.707 286.15 307.725 286.184 307.752C286.219 307.778 286.247 307.812 286.266 307.851C286.286 307.89 286.296 307.933 286.297 307.976C286.297 308.02 286.288 308.063 286.269 308.102L285.631 309.613C285.604 309.679 285.602 309.751 285.624 309.818C285.645 309.885 285.69 309.942 285.75 309.979C285.81 310.016 285.881 310.031 285.951 310.02C286.021 310.01 286.084 309.975 286.131 309.922L287.291 308.73C287.321 308.698 287.357 308.672 287.397 308.655C287.437 308.637 287.481 308.628 287.525 308.628C287.569 308.628 287.612 308.637 287.652 308.655C287.693 308.672 287.729 308.698 287.759 308.73L288.706 309.922C288.908 310.177 289.344 309.922 289.27 309.613L288.897 308.102C288.888 308.058 288.887 308.013 288.896 307.969C288.904 307.925 288.921 307.882 288.946 307.845C288.971 307.807 289.003 307.775 289.04 307.75C289.077 307.725 289.119 307.707 289.163 307.698L290.749 307.379C291.089 307.315 291.132 306.836 290.802 306.772Z" fill="#263238"/>
<path d="M300.867 306.772L299.346 306.453C299.302 306.447 299.26 306.43 299.225 306.403C299.189 306.377 299.16 306.343 299.14 306.304C299.12 306.264 299.11 306.22 299.111 306.176C299.111 306.131 299.123 306.088 299.144 306.049L299.782 304.538C299.823 304.47 299.835 304.389 299.816 304.312C299.797 304.235 299.749 304.169 299.681 304.128C299.613 304.088 299.532 304.075 299.455 304.094C299.378 304.113 299.312 304.162 299.271 304.23L298.122 305.421C298.093 305.457 298.057 305.485 298.015 305.505C297.974 305.525 297.929 305.535 297.883 305.535C297.837 305.535 297.792 305.525 297.75 305.505C297.709 305.485 297.672 305.457 297.643 305.421L296.696 304.23C296.494 303.974 296.058 304.23 296.143 304.538L296.516 306.049C296.525 306.093 296.525 306.138 296.517 306.183C296.509 306.227 296.492 306.269 296.467 306.307C296.442 306.344 296.41 306.377 296.373 306.402C296.336 306.427 296.294 306.444 296.25 306.453L294.664 306.772C294.324 306.836 294.281 307.315 294.611 307.379L296.133 307.698C296.175 307.707 296.215 307.725 296.25 307.752C296.284 307.778 296.313 307.812 296.332 307.851C296.351 307.89 296.362 307.933 296.362 307.977C296.363 308.02 296.353 308.063 296.335 308.102L295.696 309.613C295.655 309.681 295.643 309.762 295.662 309.839C295.681 309.916 295.73 309.982 295.797 310.023C295.865 310.064 295.946 310.076 296.023 310.057C296.1 310.038 296.166 309.99 296.207 309.922L297.356 308.73C297.386 308.698 297.422 308.672 297.463 308.655C297.503 308.637 297.546 308.628 297.59 308.628C297.634 308.628 297.678 308.637 297.718 308.655C297.758 308.672 297.794 308.698 297.824 308.73L298.782 309.922C298.984 310.177 299.42 309.922 299.335 309.613L298.963 308.102C298.947 308.014 298.966 307.922 299.015 307.847C299.065 307.772 299.141 307.719 299.229 307.698L300.814 307.379C301.112 307.315 301.197 306.836 300.867 306.772Z" fill="#263238"/>
<path d="M310.943 306.772L309.411 306.453C309.368 306.445 309.328 306.426 309.294 306.4C309.259 306.373 309.231 306.339 309.212 306.3C309.192 306.261 309.182 306.218 309.181 306.175C309.181 306.131 309.19 306.088 309.209 306.049L309.847 304.538C309.874 304.473 309.877 304.4 309.855 304.333C309.833 304.266 309.788 304.209 309.728 304.172C309.668 304.135 309.597 304.121 309.527 304.131C309.457 304.142 309.394 304.176 309.347 304.229L308.188 305.421C308.16 305.457 308.124 305.485 308.084 305.505C308.043 305.525 307.999 305.535 307.953 305.535C307.908 305.535 307.864 305.525 307.823 305.505C307.783 305.485 307.747 305.457 307.719 305.421L306.772 304.229C306.57 303.974 306.134 304.229 306.209 304.538L306.581 306.049C306.592 306.093 306.593 306.139 306.586 306.184C306.578 306.229 306.561 306.271 306.536 306.309C306.511 306.347 306.479 306.38 306.441 306.404C306.403 306.429 306.36 306.446 306.315 306.453L304.73 306.772C304.389 306.836 304.347 307.315 304.73 307.379L306.262 307.698C306.305 307.706 306.345 307.724 306.379 307.751C306.414 307.778 306.442 307.812 306.46 307.852C306.479 307.891 306.488 307.934 306.487 307.978C306.486 308.021 306.474 308.064 306.453 308.102L305.825 309.613C305.799 309.679 305.796 309.751 305.818 309.818C305.84 309.885 305.885 309.942 305.945 309.979C306.005 310.016 306.076 310.031 306.146 310.02C306.215 310.01 306.279 309.975 306.326 309.922L307.485 308.73C307.515 308.698 307.551 308.672 307.592 308.655C307.632 308.637 307.675 308.628 307.719 308.628C307.763 308.628 307.807 308.637 307.847 308.655C307.887 308.672 307.924 308.698 307.953 308.73L308.9 309.922C309.103 310.177 309.539 309.922 309.454 309.613L309.081 308.102C309.066 308.012 309.086 307.92 309.137 307.844C309.189 307.769 309.268 307.716 309.358 307.698L310.943 307.379C311.231 307.315 311.273 306.836 310.943 306.772Z" fill="#263238"/>
<path d="M321.009 306.772L319.477 306.453C319.434 306.445 319.394 306.426 319.359 306.4C319.325 306.373 319.297 306.339 319.277 306.3C319.258 306.261 319.247 306.218 319.247 306.175C319.247 306.131 319.256 306.088 319.275 306.049L319.913 304.538C319.94 304.473 319.942 304.4 319.92 304.333C319.898 304.266 319.853 304.209 319.793 304.172C319.733 304.135 319.662 304.121 319.593 304.131C319.523 304.142 319.459 304.176 319.413 304.229L318.253 305.421C318.225 305.457 318.19 305.485 318.149 305.505C318.109 305.525 318.064 305.535 318.019 305.535C317.974 305.535 317.929 305.525 317.889 305.505C317.848 305.485 317.813 305.457 317.785 305.421L316.838 304.229C316.636 303.974 316.2 304.229 316.285 304.538L316.657 306.049C316.666 306.094 316.666 306.14 316.657 306.185C316.648 306.23 316.63 306.272 316.605 306.31C316.579 306.348 316.546 306.38 316.507 306.404C316.469 306.429 316.426 306.446 316.38 306.453L314.795 306.772C314.455 306.836 314.412 307.315 314.742 307.379L316.274 307.698C316.317 307.707 316.357 307.725 316.391 307.752C316.426 307.778 316.454 307.812 316.474 307.851C316.493 307.89 316.503 307.933 316.504 307.976C316.504 308.02 316.495 308.063 316.476 308.102L315.838 309.613C315.811 309.679 315.809 309.751 315.831 309.818C315.852 309.885 315.897 309.942 315.957 309.979C316.017 310.016 316.088 310.031 316.158 310.02C316.228 310.01 316.292 309.975 316.338 309.922L317.498 308.73C317.528 308.698 317.564 308.672 317.604 308.655C317.644 308.637 317.688 308.628 317.732 308.628C317.776 308.628 317.819 308.637 317.859 308.655C317.9 308.672 317.936 308.698 317.966 308.73L318.913 309.922C319.115 310.177 319.551 309.922 319.477 309.613L319.104 308.102C319.095 308.058 319.095 308.013 319.103 307.969C319.111 307.925 319.128 307.882 319.153 307.845C319.178 307.807 319.21 307.775 319.247 307.75C319.284 307.725 319.326 307.707 319.37 307.698L320.956 307.379C321.328 307.315 321.328 306.836 321.009 306.772Z" fill="#263238"/>
<path d="M331.074 306.772L329.542 306.453C329.499 306.445 329.459 306.427 329.424 306.4C329.39 306.374 329.362 306.339 329.343 306.3C329.325 306.26 329.316 306.217 329.317 306.174C329.318 306.13 329.33 306.087 329.351 306.049L329.989 304.538C330.009 304.505 330.023 304.467 330.028 304.429C330.034 304.39 330.033 304.35 330.023 304.312C330.014 304.274 329.997 304.238 329.974 304.207C329.951 304.175 329.921 304.149 329.888 304.128C329.854 304.108 329.817 304.095 329.778 304.089C329.74 304.083 329.7 304.085 329.662 304.094C329.624 304.104 329.588 304.12 329.557 304.144C329.525 304.167 329.498 304.196 329.478 304.23L328.329 305.421C328.3 305.457 328.264 305.485 328.222 305.505C328.181 305.525 328.136 305.535 328.09 305.535C328.044 305.535 327.998 305.525 327.957 305.505C327.916 305.485 327.879 305.457 327.85 305.421L326.903 304.23C326.701 303.974 326.265 304.23 326.35 304.538L326.722 306.049C326.732 306.093 326.732 306.138 326.724 306.183C326.716 306.227 326.698 306.269 326.674 306.307C326.649 306.344 326.617 306.377 326.58 306.402C326.542 306.427 326.501 306.444 326.456 306.453L324.871 306.772C324.531 306.836 324.488 307.315 324.818 307.379L326.339 307.698C326.382 307.707 326.422 307.725 326.457 307.752C326.491 307.778 326.519 307.812 326.539 307.851C326.558 307.89 326.569 307.933 326.569 307.976C326.57 308.02 326.56 308.063 326.542 308.102L325.903 309.613C325.862 309.681 325.85 309.762 325.869 309.839C325.888 309.916 325.936 309.982 326.004 310.023C326.072 310.064 326.153 310.076 326.23 310.057C326.307 310.038 326.373 309.99 326.414 309.922L327.563 308.73C327.593 308.698 327.629 308.672 327.669 308.655C327.71 308.637 327.753 308.628 327.797 308.628C327.841 308.628 327.884 308.637 327.925 308.655C327.965 308.672 328.001 308.698 328.031 308.73L328.978 309.922C329.028 309.978 329.095 310.015 329.168 310.028C329.242 310.04 329.317 310.028 329.383 309.992C329.448 309.956 329.5 309.899 329.529 309.83C329.557 309.762 329.562 309.685 329.542 309.613L329.17 308.102C329.154 308.014 329.172 307.922 329.222 307.847C329.271 307.772 329.348 307.719 329.436 307.698L331.021 307.379C331.361 307.315 331.404 306.836 331.074 306.772Z" fill="#263238"/>
<path d="M306.804 284.737H287.908C287.328 284.747 286.772 284.969 286.344 285.361C285.917 285.753 285.648 286.288 285.588 286.865C285.558 287.137 285.586 287.411 285.67 287.671C285.755 287.931 285.894 288.17 286.079 288.371C286.263 288.573 286.488 288.733 286.74 288.84C286.991 288.947 287.262 288.999 287.535 288.993H306.432C307.012 288.983 307.568 288.761 307.996 288.369C308.423 287.977 308.692 287.442 308.752 286.865C308.78 286.594 308.751 286.32 308.666 286.061C308.581 285.802 308.441 285.564 308.257 285.363C308.073 285.161 307.848 285.002 307.598 284.894C307.348 284.786 307.077 284.733 306.804 284.737Z" fill="#263238"/>
<path d="M325.999 284.737H315.029C314.451 284.747 313.896 284.97 313.47 285.362C313.044 285.754 312.778 286.289 312.72 286.865C312.69 287.136 312.718 287.41 312.802 287.669C312.886 287.928 313.024 288.166 313.207 288.367C313.39 288.569 313.615 288.729 313.865 288.836C314.115 288.944 314.385 288.998 314.657 288.993H325.584C326.163 288.983 326.718 288.761 327.143 288.368C327.569 287.976 327.836 287.441 327.893 286.865C327.923 286.598 327.896 286.328 327.815 286.072C327.733 285.816 327.599 285.58 327.42 285.379C327.242 285.178 327.023 285.017 326.778 284.907C326.533 284.796 326.268 284.738 325.999 284.737Z" fill="#263238"/>
<path d="M340.48 381.189C333.801 383.733 327.771 387.73 322.828 392.893C319.827 390.562 316.248 389.091 312.476 388.637L311.975 388.562L311.763 391.073L312.039 391.179C316.177 392.703 319.676 395.583 321.966 399.351L322.328 399.947L322.722 399.308C327.128 392.274 333.347 386.555 340.725 382.753L340.969 382.625L341.108 380.965L340.48 381.189Z" fill="#263238"/>
<path opacity="0.2" d="M245.401 171.698C244.045 174.065 243.211 176.695 242.954 179.412L227.111 360.526H276.14L285.993 322.764L282.747 284.992L292.6 247.231L289.408 209.47L299.261 171.698H245.401Z" fill="black"/>
<path d="M285.099 198.83L294.952 161.058H170.964L161.122 198.83L164.356 236.591L154.514 274.352L157.749 312.124L147.907 349.886H271.884L281.737 312.124L278.491 274.352L288.344 236.591L285.099 198.83Z" fill="#0C768A"/>
<path opacity="0.7" d="M285.099 198.83L294.952 161.058H170.964L161.122 198.83L164.356 236.591L154.514 274.352L157.749 312.124L147.907 349.886H271.884L281.737 312.124L278.491 274.352L288.344 236.591L285.099 198.83Z" fill="white"/>
<path opacity="0.5" d="M285.099 198.83H161.122L170.964 161.058H294.952L285.099 198.83Z" fill="white"/>
<path opacity="0.5" d="M278.491 274.352H154.514L164.356 236.591H288.344L278.491 274.352Z" fill="white"/>
<path opacity="0.5" d="M271.884 349.886H147.896L157.749 312.125H281.737L271.884 349.886Z" fill="white"/>
<path opacity="0.2" d="M268.511 214.609C267.239 214.976 265.92 215.156 264.596 215.141C262.8 215.22 261.013 214.855 259.393 214.077C259.099 213.903 258.765 213.811 258.424 213.811C258.112 213.815 257.805 213.895 257.531 214.045H257.467C256.991 214.312 256.484 214.516 255.956 214.651C254.765 214.966 253.538 215.12 252.306 215.109C251.934 215.109 251.572 215.109 251.242 215.109C250.287 215.048 249.341 214.88 248.423 214.609C248.288 214.569 248.148 214.544 248.008 214.534C247.774 214.515 247.538 214.545 247.316 214.621C247.094 214.697 246.89 214.819 246.717 214.978C246.545 215.137 246.406 215.329 246.312 215.544C246.217 215.759 246.168 215.991 246.167 216.226V217.375H197.904C197.017 217.375 196.139 217.55 195.32 217.89C194.501 218.229 193.757 218.727 193.13 219.355C192.504 219.982 192.007 220.727 191.669 221.547C191.33 222.367 191.157 223.245 191.158 224.132V230.931C191.155 231.818 191.328 232.698 191.666 233.519C192.003 234.339 192.5 235.086 193.126 235.714C193.753 236.343 194.498 236.842 195.318 237.182C196.137 237.522 197.016 237.698 197.904 237.698H252.732H253.094C253.679 238.187 254.296 238.676 254.956 239.177C255.615 239.677 256.552 240.368 257.414 240.985C257.708 241.198 258.061 241.313 258.424 241.313C258.787 241.313 259.141 241.198 259.435 240.985C266.33 235.985 270.756 232.537 270.756 223.068V216.258C270.759 215.986 270.698 215.716 270.576 215.473C270.455 215.229 270.277 215.018 270.057 214.857C269.838 214.695 269.583 214.589 269.314 214.546C269.045 214.503 268.77 214.524 268.511 214.609Z" fill="black"/>
<path d="M251.679 213.641H196.861C193.13 213.641 190.105 216.666 190.105 220.397V227.196C190.105 230.927 193.13 233.952 196.861 233.952H251.679C255.41 233.952 258.435 230.927 258.435 227.196V220.397C258.435 216.666 255.41 213.641 251.679 213.641Z" fill="#0C768A"/>
<path d="M263.542 211.396C261.747 211.472 259.96 211.107 258.339 210.332C258.051 210.155 257.72 210.061 257.382 210.061C257.044 210.061 256.712 210.155 256.424 210.332C254.8 211.108 253.009 211.474 251.21 211.396C249.886 211.41 248.567 211.23 247.295 210.864C247.039 210.777 246.765 210.753 246.498 210.794C246.231 210.834 245.977 210.938 245.757 211.096C245.538 211.254 245.359 211.462 245.236 211.703C245.113 211.944 245.049 212.21 245.05 212.481V219.29C245.05 228.771 249.476 232.218 256.371 237.219C256.665 237.432 257.019 237.546 257.382 237.546C257.745 237.546 258.098 237.432 258.392 237.219C265.287 232.218 269.713 228.771 269.713 219.29V212.481C269.712 212.21 269.647 211.943 269.522 211.703C269.398 211.462 269.219 211.254 268.998 211.096C268.778 210.938 268.524 210.835 268.256 210.795C267.988 210.754 267.715 210.778 267.458 210.864C266.185 211.231 264.866 211.41 263.542 211.396Z" fill="#0C768A"/>
<path opacity="0.3" d="M263.542 211.396C261.747 211.472 259.96 211.107 258.339 210.332C258.051 210.155 257.72 210.061 257.382 210.061C257.044 210.061 256.712 210.155 256.424 210.332C254.8 211.108 253.009 211.474 251.21 211.396C249.886 211.41 248.567 211.23 247.295 210.864C247.039 210.777 246.765 210.753 246.498 210.794C246.231 210.834 245.977 210.938 245.757 211.096C245.538 211.254 245.359 211.462 245.236 211.703C245.113 211.944 245.049 212.21 245.05 212.481V219.29C245.05 228.771 249.476 232.218 256.371 237.219C256.665 237.432 257.019 237.546 257.382 237.546C257.745 237.546 258.098 237.432 258.392 237.219C265.287 232.218 269.713 228.771 269.713 219.29V212.481C269.712 212.21 269.647 211.943 269.522 211.703C269.398 211.462 269.219 211.254 268.998 211.096C268.778 210.938 268.524 210.835 268.256 210.795C267.988 210.754 267.715 210.778 267.458 210.864C266.185 211.231 264.866 211.41 263.542 211.396Z" fill="white"/>
<path opacity="0.2" d="M256.424 210.31C254.8 211.087 253.009 211.452 251.21 211.374C249.886 211.388 248.567 211.208 247.295 210.842C247.039 210.756 246.765 210.732 246.498 210.773C246.231 210.813 245.977 210.916 245.757 211.075C245.538 211.233 245.359 211.441 245.236 211.682C245.113 211.922 245.049 212.189 245.05 212.459V219.269C245.05 228.749 249.476 232.197 256.371 237.197C256.68 237.421 257.053 237.537 257.435 237.527V210.034C257.078 210.027 256.727 210.123 256.424 210.31Z" fill="white"/>
<path d="M267.266 217.439C263.118 219.064 259.425 221.666 256.498 225.025C254.458 223.521 252.066 222.565 249.551 222.248H249.221V223.876L249.402 223.94C252.199 224.95 254.61 226.81 256.296 229.26L256.562 229.643L256.786 229.228C259.232 224.682 262.957 220.954 267.5 218.503L267.66 218.429V217.365L267.266 217.439Z" fill="#263238"/>
<path d="M292.76 171.687H288.057C287.452 171.698 286.851 171.58 286.295 171.341C285.74 171.102 285.241 170.747 284.833 170.3C284.426 169.853 284.118 169.324 283.93 168.749C283.743 168.173 283.681 167.564 283.748 166.963L284.163 162.26C284.29 160.981 284.883 159.793 285.828 158.922C286.774 158.052 288.006 157.558 289.291 157.536H293.994C294.6 157.523 295.201 157.64 295.759 157.878C296.316 158.117 296.816 158.472 297.225 158.919C297.634 159.366 297.942 159.896 298.13 160.472C298.318 161.048 298.381 161.658 298.314 162.26L297.899 166.963C297.756 168.238 297.157 169.418 296.212 170.286C295.268 171.154 294.042 171.651 292.76 171.687Z" fill="#0C768A"/>
<path d="M294.717 162.249L293.696 161.122L291.121 163.484L288.972 161.122L287.748 162.249L289.908 164.612L287.344 166.974L288.365 168.091L290.929 165.729L293.089 168.091L294.302 166.974L292.142 164.612L294.717 162.249Z" fill="white"/>
<path d="M187.658 212.257C190.382 215.226 192.978 218.301 195.563 221.397C198.149 224.493 200.649 227.653 203.139 230.824C203.245 230.962 203.203 230.909 203.224 230.952C203.245 230.994 203.224 231.005 203.224 231.016C203.243 231.055 203.268 231.091 203.299 231.122C203.389 231.251 203.505 231.361 203.638 231.445C203.771 231.529 203.92 231.585 204.075 231.611C204.195 231.628 204.317 231.628 204.437 231.611C204.501 231.616 204.565 231.616 204.629 231.611H204.724C204.777 231.611 204.724 231.611 204.895 231.548L207.555 230.101C211.13 228.207 214.737 226.355 218.461 224.695L221.578 228.558C218.578 231.314 215.449 234.772 212.289 237.304L209.906 239.177C209.758 239.297 209.601 239.408 209.438 239.506C209.257 239.635 209.069 239.752 208.874 239.857C208.489 240.079 208.091 240.278 207.682 240.453C206.858 240.8 205.992 241.039 205.107 241.166C203.317 241.429 201.49 241.246 199.787 240.634C198.921 240.327 198.099 239.908 197.34 239.389C196.957 239.134 196.595 238.836 196.276 238.549C196.095 238.4 195.946 238.23 195.776 238.07L195.35 237.644C192.531 234.75 189.754 231.835 187.03 228.866C184.306 225.898 181.614 222.908 179.039 219.801L187.658 212.257Z" fill="#B55B52"/>
<path d="M217.056 227.036L219.535 219.067L226.068 222.323C226.068 222.323 225.111 228.132 220.365 229.143L217.056 227.036Z" fill="#B55B52"/>
<path d="M222.142 216.864L228.037 218.482L226.058 222.323L219.525 219.067L222.142 216.864Z" fill="#B55B52"/>
<path d="M153.312 214.428C152.61 217.811 151.737 221.163 150.833 224.504C149.928 227.845 148.939 231.154 147.907 234.463L147.524 235.708L147.332 236.325C147.307 236.414 147.271 236.499 147.226 236.58C147.105 236.923 147.036 237.281 147.024 237.644C147.001 238.417 147.217 239.179 147.641 239.826C147.85 240.109 148.081 240.376 148.332 240.624L149.216 241.592L150.961 243.539C152.099 244.858 153.248 246.178 154.333 247.561L150.62 251.817C149.088 250.944 147.62 249.997 146.151 249.061L143.97 247.614L142.906 246.88C142.544 246.624 142.246 246.454 141.661 245.975C139.579 244.201 138.143 241.788 137.575 239.113C137.29 237.749 137.222 236.348 137.373 234.963C137.373 234.623 137.48 234.24 137.533 233.899L137.65 233.261L137.873 231.984C138.469 228.568 139.108 225.164 139.82 221.78C140.533 218.397 141.299 215.024 142.204 211.693L153.312 214.428Z" fill="#B55B52"/>
<path d="M150.694 247.22L155.078 244.975L157.014 252.423C157.014 252.423 153.493 253.775 150.769 252.04L150.694 247.22Z" fill="#B55B52"/>
<path d="M161.143 242.581L161.345 249.433L156.44 252.636L154.738 245.114L161.143 242.581Z" fill="#B55B52"/>
<path d="M175.496 179.252C175.603 179.773 175.975 180.146 176.316 180.082C176.656 180.018 176.858 179.529 176.752 179.018C176.645 178.507 176.273 178.124 175.932 178.188C175.592 178.252 175.39 178.752 175.496 179.252Z" fill="#263238"/>
<path d="M175.922 180.156C176.88 181.64 178.036 182.986 179.359 184.157C179.051 184.489 178.674 184.749 178.255 184.92C177.836 185.091 177.385 185.168 176.933 185.146L175.922 180.156Z" fill="#A02724"/>
<path d="M172.975 176.72C172.913 176.719 172.853 176.7 172.802 176.667C172.751 176.633 172.711 176.585 172.686 176.529C172.662 176.473 172.654 176.411 172.663 176.35C172.673 176.29 172.7 176.233 172.74 176.188C173.074 175.811 173.491 175.518 173.959 175.333C174.427 175.148 174.932 175.076 175.432 175.124C175.474 175.131 175.513 175.147 175.548 175.17C175.583 175.193 175.614 175.222 175.637 175.257C175.661 175.291 175.678 175.33 175.686 175.371C175.695 175.412 175.695 175.455 175.688 175.496C175.681 175.537 175.667 175.576 175.645 175.611C175.623 175.646 175.595 175.676 175.561 175.7C175.527 175.724 175.489 175.741 175.449 175.75C175.408 175.758 175.367 175.759 175.326 175.751C174.929 175.713 174.529 175.771 174.159 175.919C173.789 176.067 173.459 176.301 173.198 176.602C173.141 176.669 173.061 176.711 172.975 176.72Z" fill="#263238"/>
<path d="M160.153 186.668C161.324 191.552 162.505 200.5 158.313 203.745C158.313 203.745 159.951 208.703 171.081 208.703C183.317 208.703 176.933 205.511 176.933 205.511C170.251 204.213 170.421 198.415 171.613 194.616L160.153 186.668Z" fill="#B55B52"/>
<path d="M157.004 204.65C156.281 203.298 155.472 201.745 157.132 201.255C158.962 200.723 170.698 199.734 174.156 200.734C173.092 202.617 174.89 204.99 174.89 204.99L157.004 204.65Z" fill="#263238"/>
<path d="M166.729 432.963H174.4L175.167 417.513H167.484L166.729 432.963Z" fill="#B55B52"/>
<path d="M118.008 430.835L125.786 431.25L130.51 416.024L122.732 415.609L118.008 430.835Z" fill="#B55B52"/>
<path d="M125.552 430.633L118.221 429.047C118.093 429.018 117.958 429.034 117.84 429.092C117.722 429.15 117.627 429.247 117.572 429.366L115.029 434.889C114.967 435.023 114.936 435.169 114.938 435.317C114.941 435.465 114.978 435.611 115.046 435.742C115.114 435.874 115.211 435.988 115.33 436.076C115.448 436.164 115.586 436.224 115.731 436.251C118.296 436.761 119.572 436.878 122.796 437.581C124.775 438.006 129.255 439.102 131.989 439.709C134.724 440.315 135.671 437.676 134.607 437.187C129.819 435.006 127.818 433.08 126.52 431.282C126.287 430.955 125.943 430.724 125.552 430.633Z" fill="#263238"/>
<path d="M173.996 432.186H166.708C166.576 432.188 166.448 432.234 166.346 432.317C166.244 432.4 166.172 432.515 166.144 432.644L164.824 438.57C164.79 438.714 164.789 438.863 164.822 439.007C164.854 439.151 164.919 439.285 165.012 439.4C165.104 439.515 165.221 439.607 165.355 439.67C165.488 439.733 165.634 439.764 165.782 439.762C168.41 439.762 172.166 439.56 175.517 439.56C179.38 439.56 182.71 439.772 187.221 439.772C189.956 439.772 190.722 437.006 189.573 436.751C184.349 435.612 180.093 435.484 175.581 432.707C175.11 432.393 174.562 432.213 173.996 432.186Z" fill="#263238"/>
<path d="M144.406 206.001C138.618 208.757 137.043 225.461 137.043 225.461L151.375 232.079C153.798 227.993 155.118 223.348 155.206 218.599C155.493 209.97 150.333 203.224 144.406 206.001Z" fill="#263238"/>
<path opacity="0.4" d="M152.152 216.301C149.567 220.322 149.811 226.536 150.705 231.782L151.344 232.08C153.764 227.993 155.084 223.348 155.174 218.599C155.174 218.088 155.174 217.535 155.174 217.077L152.152 216.301Z" fill="black"/>
<path d="M184.402 205.597C184.402 205.597 191.509 213.619 184.796 263.265H149.12C148.875 257.786 152.312 231.069 146.992 205.256C150.935 204.498 154.922 203.993 158.93 203.745C163.983 203.458 169.049 203.458 174.102 203.745C177.578 204.097 181.021 204.716 184.402 205.597Z" fill="#0C768A"/>
<path opacity="0.6" d="M184.402 205.597C184.402 205.597 191.509 213.619 184.796 263.265H149.12C148.875 257.786 152.312 231.069 146.992 205.256C150.935 204.498 154.922 203.993 158.93 203.745C163.983 203.458 169.049 203.458 174.102 203.745C177.578 204.097 181.021 204.716 184.402 205.597Z" fill="#FAFAFA"/>
<path opacity="0.2" d="M187.519 220.769L187.392 220.652L180.295 216.864C179.571 227.792 184.455 234.644 187.36 237.634C187.724 232.019 187.777 226.389 187.519 220.769Z" fill="black"/>
<path opacity="0.2" d="M175.166 417.513L174.773 425.483H167.091L167.484 417.513H175.166Z" fill="black"/>
<path opacity="0.2" d="M122.732 415.62L130.51 416.024L128.074 423.876L120.296 423.461L122.732 415.62Z" fill="black"/>
<path d="M157.685 181.71C159.398 188.094 160.079 191.935 164.069 194.595C170.006 198.596 177.39 193.999 177.624 187.221C177.826 181.125 174.996 171.687 168.133 170.4C166.618 170.1 165.051 170.194 163.583 170.672C162.114 171.15 160.793 171.997 159.745 173.131C158.697 174.266 157.957 175.65 157.596 177.152C157.236 178.654 157.266 180.223 157.685 181.71Z" fill="#B55B52"/>
<path d="M172.145 263.265C172.145 263.265 164.569 314.242 160.441 333.351C155.865 354.312 131.457 423.472 131.457 423.472L119.509 420.886C119.509 420.886 134.82 364.494 138.661 335.256C140.15 323.839 141.948 305.464 144.225 290.11C146.428 275.214 149.141 263.276 149.141 263.276L172.145 263.265Z" fill="#263238"/>
<path d="M134.32 419.482L132.085 423.802L118.657 420.886L119.785 416.854L134.32 419.482Z" fill="#0C768A"/>
<path opacity="0.6" d="M134.32 419.482L132.085 423.802L118.657 420.886L119.785 416.854L134.32 419.482Z" fill="white"/>
<path opacity="0.6" d="M167.357 281.428C158.6 283.141 159.526 315.795 160.579 332.585C163.111 320.711 166.803 297.877 169.325 281.662C168.715 281.361 168.02 281.279 167.357 281.428Z" fill="black"/>
<path d="M184.796 263.265C184.796 263.265 188.36 313.146 187.636 333.489C186.881 354.652 176.847 423.929 176.847 423.929H165.548C165.548 423.929 165.133 355.833 164.633 335.096C164.079 312.433 161.345 263.255 161.345 263.255L184.796 263.265Z" fill="#263238"/>
<path d="M179.018 419.439C179.071 419.439 178.38 424.131 178.38 424.131H164.633L164.26 419.939L179.018 419.439Z" fill="#0C768A"/>
<path opacity="0.6" d="M179.018 419.439C179.071 419.439 178.38 424.131 178.38 424.131H164.633L164.26 419.939L179.018 419.439Z" fill="white"/>
<path d="M180.242 214.928C180.242 228.313 187.36 233.825 187.36 233.825L198.968 222.525C196.22 217.933 193.092 213.58 189.616 209.512C182.902 201.819 180.242 206.331 180.242 214.928Z" fill="#263238"/>
<path opacity="0.2" d="M177.177 189.647C176.941 190.318 176.544 190.921 176.021 191.403C175.498 191.885 174.865 192.232 174.177 192.414C173.42 192.568 172.734 192.962 172.218 193.536C171.703 194.111 171.386 194.837 171.315 195.606C172.692 195.145 173.942 194.365 174.961 193.329C175.979 192.294 176.739 191.032 177.177 189.647Z" fill="black"/>
<path d="M174.177 168.995C176.56 165.984 172.89 165.803 172.89 165.803C173.847 162.217 169.549 164.143 169.549 164.143C166.974 160.589 165.516 164.92 165.516 164.92C162.845 161.909 162.324 166.824 162.324 166.824C159.643 163.005 158.281 168.516 158.281 168.516C155.812 164.547 154.301 169.708 154.301 169.708C149.205 167.888 151.62 173.187 151.62 173.187C147.279 173.304 150.769 176.677 150.769 176.677C145.555 176.677 150.152 179.667 150.152 179.667C146.013 182.38 151.216 183.114 151.216 183.114C147.843 188.434 153.642 186.434 153.642 186.434C151.29 191.669 156.493 189.36 156.493 189.36C156.163 194.403 159.068 193.031 160.473 192.094C160.739 193.158 161.249 194.222 162.186 194.308C164.005 194.552 164.314 191.116 164.314 191.116C164.314 191.116 165.995 192.435 167.41 191.722C168.825 191.009 168.293 189.211 168.293 189.211C168.6 189.441 168.974 189.565 169.357 189.565C169.741 189.565 170.114 189.441 170.421 189.211C171.028 188.743 171.028 185.359 170.261 184.168L173.028 183.104C173.028 183.104 175.081 182.816 174.166 180.103C173.614 178.544 173.566 176.85 174.028 175.262C177.156 173.794 174.581 172.07 174.581 172.07C178.21 169.74 174.177 168.995 174.177 168.995Z" fill="#263238"/>
<path d="M168.57 181.944C169.003 183.531 169.949 184.931 171.262 185.923C172.996 187.221 174.294 185.923 174.166 183.976C174.06 182.21 173.017 179.412 171.102 178.88C169.187 178.348 168.112 180.061 168.57 181.944Z" fill="#B55B52"/>
</svg>
